inDegrees=yes
name=ik_lifting_orientations
DataType=double
version=3
OpenSimVersion=4.5-2024-01-10-34fd6af
endheader
time	pelvis_tilt	pelvis_list	pelvis_rotation	pelvis_tx	pelvis_ty	pelvis_tz	hip_flexion_r	hip_adduction_r	hip_rotation_r	knee_angle_r	knee_angle_r_beta	ankle_angle_r	subtalar_angle_r	mtp_angle_r	hip_flexion_l	hip_adduction_l	hip_rotation_l	knee_angle_l	knee_angle_l_beta	ankle_angle_l	subtalar_angle_l	mtp_angle_l	lumbar_extension	lumbar_bending	lumbar_rotation	arm_flex_r	arm_add_r	arm_rot_r	elbow_flex_r	pro_sup_r	wrist_flex_r	wrist_dev_r	arm_flex_l	arm_add_l	arm_rot_l	elbow_flex_l	pro_sup_l	wrist_flex_l	wrist_dev_l
0.57	-28.66391314957149	3.994923867166011	-33.73344828683554	0	0.9399999998679526	0	45.64992637307595	-9.849207651655769	0	60.1439627452411	1.049710175101265	-4.923005893553339	0	0	45.64992637307595	-9.849207651655769	0	60.1439627452411	1.049710175101265	-4.923005893553339	0	0	-30.07264825615757	11.11148059789748	-9.021860345837416	-4.406772848920303	16.15792469152786	-20.25329174657147	52.55103812795727	-0.5172956843352919	0	0	0	-15.17569697888646	0	90.46354773189658	-0.5172956843352919	0	0
0.58	-27.08808250984285	4.621392947645099	-33.03401289309105	0	0.9399999998679526	0	45.64987236337834	-9.849250097307237	0	60.14395313210716	1.049710007320426	-4.92303399530972	0	0	45.64987236337834	-9.849250097307237	0	60.14395313210716	1.049710007320426	-4.92303399530972	0	0	-30.42584819883285	10.71700999475204	-9.768521684021726	-4.556797988782402	15.79183927873072	-21.0409939727415	52.65290085764517	-0.5172654985385512	0	0	0	-15.17568937242562	0	90.46352067261766	-0.5172654985385512	0	0
0.59	-26.41440616277633	5.501256629294222	-33.42964001208968	0	0.9399999998679526	0	45.6498160616745	-9.849295112440007	0	60.14394325349883	1.049709834906185	-4.923063890484292	0	0	45.6498160616745	-9.849295112440007	0	60.14394325349883	1.049709834906185	-4.923063890484292	0	0	-30.3010932670692	10.42933932965472	-10.80991484703979	-4.157419457068725	15.65264056836425	-21.94618932221189	53.27514217086443	-0.517234204630635	0	0	0	-15.17568152378244	0	90.46349262000486	-0.517234204630635	0	0
0.6	-25.35685607735022	4.883133126896091	-32.86487074660015	0	0.9399999998679526	0	45.64974974881964	-9.849347776018698	0	60.14393155040673	1.049709630648695	-4.923098824784228	0	0	45.64974974881964	-9.849347776018698	0	60.14393155040673	1.049709630648695	-4.923098824784228	0	0	-30.59086654536245	10.97185126114129	-11.43212335575473	-4.428631990507477	16.21086893290866	-22.57859411208231	53.07247419650952	-0.5171972637161849	0	0	0	-15.17567224089677	0	90.46345950527753	-0.5171972637161849	0	0
0.61	-24.15498319195624	5.455268786261663	-33.18163890344766	0	0.9399999998679526	0	45.64969183740084	-9.849393715302643	0	60.1439213293356	1.049709452257351	-4.923129283949641	0	0	45.64969183740084	-9.849393715302643	0	60.1439213293356	1.049709452257351	-4.923129283949641	0	0	-31.15629850680472	10.15229954322809	-12.54126627690428	-4.643939387683012	15.41301566463842	-23.74841040509904	53.31024589598482	-0.5171650000304305	0	-1.620765986119363e-36	0	-15.17566413315587	0	90.46343058333088	-0.5171650000304305	0	-1.620765986119363e-36
0.62	-24.1573924262807	5.45655095811088	-33.17948340786418	0	0.9399999998679526	0	45.64963513592065	-9.849439287545914	0	60.14391142325816	1.049709279363684	-4.923159578059988	0	0	45.64963513592065	-9.849439287545914	0	60.14391142325816	1.049709279363684	-4.923159578059988	0	0	-31.01719814526537	10.6009619969405	-12.80085503710048	-4.553396825386654	15.91738938750775	-23.93484979414622	53.3551821265783	-0.5171335351466582	0	0	0	-15.17565625249761	0	90.4634023774523	-0.5171335351466582	0	0
0.63	-23.49089822249645	4.762739740763946	-33.59645187930947	0	0.9399999998679526	0	45.64744885791493	-9.850636945615902	0	60.1434269273631	1.049700823315103	-4.923888150027495	0	0	45.64744885791493	-9.850636945615902	0	60.1434269273631	1.049700823315103	-4.923888150027495	0	0	-30.88587805231645	11.02194790409644	-14.49220079357212	-4.17365127352088	16.5184844659221	-25.3947023816353	53.97809832054033	-0.5157962152605611	0	0	0	-15.17529460621347	0	90.46220356898174	-0.5157962152605611	0	0
0.64	-22.82484318780425	5.609659239555192	-34.02124581615254	0	0.9399999998679526	0	45.64739129902811	-9.850681542233387	0	60.14341661417532	1.049700643316019	-4.923917567844376	0	0	45.64739129902811	-9.850681542233387	0	60.14341661417532	1.049700643316019	-4.923917567844376	0	0	-30.92000203137456	10.22053964210824	-14.94734766932138	-3.857100116424944	15.77851725122937	-25.7957492655349	54.47396509690238	-0.5157639335668989	0	0	0	-15.17528644906771	0	90.46217463088722	-0.5157639335668989	0	0
0.65	-22.26675924218943	5.324513914638317	-33.92564744011026	0	0.9399999998679526	0	45.64733955164608	-9.850722804827502	0	60.14340755345244	1.049700485176573	-4.923944934013751	0	0	45.64733955164608	-9.850722804827502	0	60.14340755345244	1.049700485176573	-4.923944934013751	0	0	-30.8802980610886	10.41282940931234	-15.98474440499597	-3.661161244779692	16.09748232252218	-26.719239641492	54.80502312096563	-0.5157351692347426	0	0	0	-15.17527923554667	0	90.46214884584666	-0.5157351692347426	0	0
0.66	-21.64645050775943	4.605341578406176	-34.32583716780791	0	0.9399999998679526	0	45.64729996677839	-9.850753786803599	0	60.14340052021228	1.049700362423375	-4.923965407488365	0	0	45.64729996677839	-9.850753786803599	0	60.14340052021228	1.049700362423375	-4.923965407488365	0	0	-31.19175539234508	10.43749412677089	-16.15064592507097	-3.939139251262475	16.05448060910122	-26.95423095937515	54.58996024575268	-0.5157130398737035	0	0	0	-15.17527365912894	0	90.4621290085513	-0.5157130398737035	0	0
0.67	-21.63106173315306	4.624633673680428	-34.32116754544563	0	0.9399999998679526	0	45.6472479204182	-9.850795384224968	0	60.14339142505933	1.04970020368301	-4.923993006947216	0	0	45.6472479204182	-9.850795384224968	0	60.14339142505933	1.04970020368301	-4.923993006947216	0	0	-30.9573852109021	10.55971586644997	-16.74924116142026	-3.618412655517387	16.31222156577383	-27.42505726139098	54.95004505512928	-0.5156841307350881	0	0	0	-15.17526641385712	0	90.46210309370322	-0.5156841307350881	0	0
0.68	-19.76004690120328	4.425840519394582	-35.04854918530258	0	0.9399999998679526	0	45.64719684482836	-9.850835478179862	0	60.14338237609604	1.049700045748806	-4.924019512470918	0	0	45.64719684482836	-9.850835478179862	0	60.14338237609604	1.049700045748806	-4.924019512470918	0	0	-31.55180954494147	9.742236640681224	-17.46307844894589	-3.794826942444169	15.43359509692616	-28.21081979097179	55.13528587460877	-0.5156556079172845	0	0	0	-15.17525923299373	0	90.46207752515902	-0.5156556079172845	0	0
